<?xml version="1.0" encoding="UTF-8" standalone="no"?>
<!DOCTYPE svg PUBLIC "-//W3C//DTD SVG 1.1//EN"
 "http://www.w3.org/Graphics/SVG/1.1/DTD/svg11.dtd">
<!-- Generated by graphviz version 2.40.1 (20161225.0304)
 -->
<!-- Title: dependencies Pages: 1 -->
<svg width="5046pt" height="284pt"
 viewBox="0.00 0.00 5046.00 284.00" xmlns="http://www.w3.org/2000/svg" xmlns:xlink="http://www.w3.org/1999/xlink">
<g id="graph0" class="graph" transform="scale(1 1) rotate(0) translate(4 280)">
<title>dependencies</title>
<polygon fill="#ffffff" stroke="transparent" points="-4,4 -4,-280 5042,-280 5042,4 -4,4"/>
<text text-anchor="start" x="2498.0091" y="-42.4" font-family="sans-serif" font-weight="bold" font-size="14.00" fill="#000000">Legend</text>
<polygon fill="#ffffb3" stroke="transparent" points="2285,-10 2285,-30 2305,-30 2305,-10 2285,-10"/>
<text text-anchor="start" x="2308.629" y="-15.4" font-family="sans-serif" font-size="14.00" fill="#000000"> &#160;Declarations</text>
<polygon fill="#8dd3c7" stroke="transparent" points="2398,-10 2398,-30 2418,-30 2418,-10 2398,-10"/>
<text text-anchor="start" x="2421.7251" y="-15.4" font-family="sans-serif" font-size="14.00" fill="#000000"> &#160;Module</text>
<polygon fill="#80b1d3" stroke="transparent" points="2484,-10 2484,-30 2504,-30 2504,-10 2484,-10"/>
<text text-anchor="start" x="2507.7812" y="-15.4" font-family="sans-serif" font-size="14.00" fill="#000000"> &#160;Bootstrap</text>
<polygon fill="#fdb462" stroke="transparent" points="2581,-10 2581,-30 2601,-30 2601,-10 2581,-10"/>
<text text-anchor="start" x="2604.6732" y="-15.4" font-family="sans-serif" font-size="14.00" fill="#000000"> &#160;Providers</text>
<polygon fill="#fb8072" stroke="transparent" points="2677,-10 2677,-30 2697,-30 2697,-10 2677,-10"/>
<text text-anchor="start" x="2700.7258" y="-15.4" font-family="sans-serif" font-size="14.00" fill="#000000"> &#160;Exports</text>
<g id="clust1" class="cluster">
<title>cluster_AppModule</title>
<polygon fill="none" stroke="#000000" stroke-dasharray="1,5" points="8,-70 8,-268 5030,-268 5030,-70 8,-70"/>
</g>
<g id="clust2" class="cluster">
<title>cluster_AppModule_declarations</title>
<polygon fill="none" stroke="#000000" points="293,-78 293,-130 5022,-130 5022,-78 293,-78"/>
</g>
<g id="clust28" class="cluster">
<title>cluster_AppModule_imports</title>
<polygon fill="none" stroke="#000000" points="16,-78 16,-130 285,-130 285,-78 16,-78"/>
</g>
<g id="clust30" class="cluster">
<title>cluster_AppModule_bootstrap</title>
<polygon fill="none" stroke="#000000" points="2261,-208 2261,-260 2385,-260 2385,-208 2261,-208"/>
</g>
<!-- AppComponent -->
<g id="node1" class="node">
<title>AppComponent</title>
<polygon fill="#ffffb3" stroke="#000000" points="5013.9399,-122 4908.0601,-122 4908.0601,-86 5013.9399,-86 5013.9399,-122"/>
<text text-anchor="middle" x="4961" y="-99.8" font-family="Times,serif" font-size="14.00" fill="#000000">AppComponent</text>
</g>
<!-- AppModule -->
<g id="node26" class="node">
<title>AppModule</title>
<polygon fill="#8dd3c7" stroke="#000000" points="2364.6571,-187 2361.6571,-191 2340.6571,-191 2337.6571,-187 2281.3429,-187 2281.3429,-151 2364.6571,-151 2364.6571,-187"/>
<text text-anchor="middle" x="2323" y="-164.8" font-family="Times,serif" font-size="14.00" fill="#000000">AppModule</text>
</g>
<!-- AppComponent&#45;&gt;AppModule -->
<g id="edge1" class="edge">
<title>AppComponent&#45;&gt;AppModule</title>
<path fill="none" stroke="#000000" d="M4961,-122.3802C4961,-146.2785 4961,-185 4961,-185 4961,-185 2374.7026,-185 2374.7026,-185"/>
<polygon fill="#000000" stroke="#000000" points="2374.7026,-181.5001 2364.7026,-185 2374.7026,-188.5001 2374.7026,-181.5001"/>
</g>
<!-- CacheDialogComponent -->
<g id="node2" class="node">
<title>CacheDialogComponent</title>
<polygon fill="#ffffb3" stroke="#000000" points="4890.4158,-122 4735.5842,-122 4735.5842,-86 4890.4158,-86 4890.4158,-122"/>
<text text-anchor="middle" x="4813" y="-99.8" font-family="Times,serif" font-size="14.00" fill="#000000">CacheDialogComponent</text>
</g>
<!-- CacheDialogComponent&#45;&gt;AppModule -->
<g id="edge2" class="edge">
<title>CacheDialogComponent&#45;&gt;AppModule</title>
<path fill="none" stroke="#000000" d="M4813,-122.0908C4813,-145.1328 4813,-182 4813,-182 4813,-182 2374.9145,-182 2374.9145,-182"/>
<polygon fill="#000000" stroke="#000000" points="2374.9146,-178.5001 2364.9145,-182 2374.9145,-185.5001 2374.9146,-178.5001"/>
</g>
<!-- ChnageIslandSizeDialogComponent -->
<g id="node3" class="node">
<title>ChnageIslandSizeDialogComponent</title>
<polygon fill="#ffffb3" stroke="#000000" points="4718.0139,-122 4497.9861,-122 4497.9861,-86 4718.0139,-86 4718.0139,-122"/>
<text text-anchor="middle" x="4608" y="-99.8" font-family="Times,serif" font-size="14.00" fill="#000000">ChnageIslandSizeDialogComponent</text>
</g>
<!-- ChnageIslandSizeDialogComponent&#45;&gt;AppModule -->
<g id="edge3" class="edge">
<title>ChnageIslandSizeDialogComponent&#45;&gt;AppModule</title>
<path fill="none" stroke="#000000" d="M4608,-122.0109C4608,-144.4852 4608,-180 4608,-180 4608,-180 2375.1055,-180 2375.1055,-180"/>
<polygon fill="#000000" stroke="#000000" points="2375.1056,-176.5001 2365.1055,-180 2375.1055,-183.5001 2375.1056,-176.5001"/>
</g>
<!-- CodeSaveDialogComponent -->
<g id="node4" class="node">
<title>CodeSaveDialogComponent</title>
<polygon fill="#ffffb3" stroke="#000000" points="4480.1979,-122 4303.8021,-122 4303.8021,-86 4480.1979,-86 4480.1979,-122"/>
<text text-anchor="middle" x="4392" y="-99.8" font-family="Times,serif" font-size="14.00" fill="#000000">CodeSaveDialogComponent</text>
</g>
<!-- CodeSaveDialogComponent&#45;&gt;AppModule -->
<g id="edge4" class="edge">
<title>CodeSaveDialogComponent&#45;&gt;AppModule</title>
<path fill="none" stroke="#000000" d="M4392,-122.0449C4392,-143.6623 4392,-177 4392,-177 4392,-177 2374.7966,-177 2374.7966,-177"/>
<polygon fill="#000000" stroke="#000000" points="2374.7966,-173.5001 2364.7966,-177 2374.7966,-180.5001 2374.7966,-173.5001"/>
</g>
<!-- CompilationErrorMessageComponent -->
<g id="node5" class="node">
<title>CompilationErrorMessageComponent</title>
<polygon fill="#ffffb3" stroke="#000000" points="4285.8486,-122 4056.1514,-122 4056.1514,-86 4285.8486,-86 4285.8486,-122"/>
<text text-anchor="middle" x="4171" y="-99.8" font-family="Times,serif" font-size="14.00" fill="#000000">CompilationErrorMessageComponent</text>
</g>
<!-- CompilationErrorMessageComponent&#45;&gt;AppModule -->
<g id="edge5" class="edge">
<title>CompilationErrorMessageComponent&#45;&gt;AppModule</title>
<path fill="none" stroke="#000000" d="M4171,-122.2843C4171,-143.3211 4171,-175 4171,-175 4171,-175 2375.0702,-175 2375.0702,-175"/>
<polygon fill="#000000" stroke="#000000" points="2375.0703,-171.5001 2365.0702,-175 2375.0702,-178.5001 2375.0703,-171.5001"/>
</g>
<!-- DashboardComponent -->
<g id="node6" class="node">
<title>DashboardComponent</title>
<polygon fill="#ffffb3" stroke="#000000" points="4037.9734,-122 3896.0266,-122 3896.0266,-86 4037.9734,-86 4037.9734,-122"/>
<text text-anchor="middle" x="3967" y="-99.8" font-family="Times,serif" font-size="14.00" fill="#000000">DashboardComponent</text>
</g>
<!-- DashboardComponent&#45;&gt;AppModule -->
<g id="edge6" class="edge">
<title>DashboardComponent&#45;&gt;AppModule</title>
<path fill="none" stroke="#000000" d="M3967,-122.2228C3967,-142.3652 3967,-172 3967,-172 3967,-172 2374.8746,-172 2374.8746,-172"/>
<polygon fill="#000000" stroke="#000000" points="2374.8747,-168.5001 2364.8746,-172 2374.8746,-175.5001 2374.8747,-168.5001"/>
</g>
<!-- DashboardDialogAboutComponent -->
<g id="node7" class="node">
<title>DashboardDialogAboutComponent</title>
<polygon fill="#ffffb3" stroke="#000000" points="3877.573,-122 3662.427,-122 3662.427,-86 3877.573,-86 3877.573,-122"/>
<text text-anchor="middle" x="3770" y="-99.8" font-family="Times,serif" font-size="14.00" fill="#000000">DashboardDialogAboutComponent</text>
</g>
<!-- DashboardDialogAboutComponent&#45;&gt;AppModule -->
<g id="edge7" class="edge">
<title>DashboardDialogAboutComponent&#45;&gt;AppModule</title>
<path fill="none" stroke="#000000" d="M3770,-122.1061C3770,-141.3391 3770,-169 3770,-169 3770,-169 2374.7454,-169 2374.7454,-169"/>
<polygon fill="#000000" stroke="#000000" points="2374.7454,-165.5001 2364.7454,-169 2374.7453,-172.5001 2374.7454,-165.5001"/>
</g>
<!-- DashboardDialogAwardsComponent -->
<g id="node8" class="node">
<title>DashboardDialogAwardsComponent</title>
<polygon fill="#ffffb3" stroke="#000000" points="3644.6091,-122 3421.3909,-122 3421.3909,-86 3644.6091,-86 3644.6091,-122"/>
<text text-anchor="middle" x="3533" y="-99.8" font-family="Times,serif" font-size="14.00" fill="#000000">DashboardDialogAwardsComponent</text>
</g>
<!-- DashboardDialogAwardsComponent&#45;&gt;AppModule -->
<g id="edge8" class="edge">
<title>DashboardDialogAwardsComponent&#45;&gt;AppModule</title>
<path fill="none" stroke="#000000" d="M3533,-122.2222C3533,-140.8285 3533,-167 3533,-167 3533,-167 2375.0023,-167 2375.0023,-167"/>
<polygon fill="#000000" stroke="#000000" points="2375.0024,-163.5001 2365.0023,-167 2375.0023,-170.5001 2375.0024,-163.5001"/>
</g>
<!-- DashboardDialogCopyrightComponent -->
<g id="node9" class="node">
<title>DashboardDialogCopyrightComponent</title>
<polygon fill="#ffffb3" stroke="#000000" points="3403.3542,-122 3166.6458,-122 3166.6458,-86 3403.3542,-86 3403.3542,-122"/>
<text text-anchor="middle" x="3285" y="-99.8" font-family="Times,serif" font-size="14.00" fill="#000000">DashboardDialogCopyrightComponent</text>
</g>
<!-- DashboardDialogCopyrightComponent&#45;&gt;AppModule -->
<g id="edge9" class="edge">
<title>DashboardDialogCopyrightComponent&#45;&gt;AppModule</title>
<path fill="none" stroke="#000000" d="M3285,-122.002C3285,-139.6754 3285,-164 3285,-164 3285,-164 2374.9545,-164 2374.9545,-164"/>
<polygon fill="#000000" stroke="#000000" points="2374.9546,-160.5001 2364.9545,-164 2374.9545,-167.5001 2374.9546,-160.5001"/>
</g>
<!-- DashboardDialogHistoryComponent -->
<g id="node10" class="node">
<title>DashboardDialogHistoryComponent</title>
<polygon fill="#ffffb3" stroke="#000000" points="3149.0688,-122 2926.9312,-122 2926.9312,-86 3149.0688,-86 3149.0688,-122"/>
<text text-anchor="middle" x="3038" y="-99.8" font-family="Times,serif" font-size="14.00" fill="#000000">DashboardDialogHistoryComponent</text>
</g>
<!-- DashboardDialogHistoryComponent&#45;&gt;AppModule -->
<g id="edge10" class="edge">
<title>DashboardDialogHistoryComponent&#45;&gt;AppModule</title>
<path fill="none" stroke="#000000" d="M3038,-122.0336C3038,-139.0597 3038,-162 3038,-162 3038,-162 2374.7942,-162 2374.7942,-162"/>
<polygon fill="#000000" stroke="#000000" points="2374.7942,-158.5001 2364.7942,-162 2374.7941,-165.5001 2374.7942,-158.5001"/>
</g>
<!-- EditorComponent -->
<g id="node11" class="node">
<title>EditorComponent</title>
<polygon fill="#ffffb3" stroke="#000000" points="2909.3273,-122 2792.6727,-122 2792.6727,-86 2909.3273,-86 2909.3273,-122"/>
<text text-anchor="middle" x="2851" y="-99.8" font-family="Times,serif" font-size="14.00" fill="#000000">EditorComponent</text>
</g>
<!-- EditorComponent&#45;&gt;AppModule -->
<g id="edge11" class="edge">
<title>EditorComponent&#45;&gt;AppModule</title>
<path fill="none" stroke="#000000" d="M2851,-122.0091C2851,-138.0494 2851,-159 2851,-159 2851,-159 2374.8726,-159 2374.8726,-159"/>
<polygon fill="#000000" stroke="#000000" points="2374.8726,-155.5001 2364.8726,-159 2374.8726,-162.5001 2374.8726,-155.5001"/>
</g>
<!-- EditorPreferencesComponent -->
<g id="node12" class="node">
<title>EditorPreferencesComponent</title>
<polygon fill="#ffffb3" stroke="#000000" points="2774.6092,-122 2593.3908,-122 2593.3908,-86 2774.6092,-86 2774.6092,-122"/>
<text text-anchor="middle" x="2684" y="-99.8" font-family="Times,serif" font-size="14.00" fill="#000000">EditorPreferencesComponent</text>
</g>
<!-- EditorPreferencesComponent&#45;&gt;AppModule -->
<g id="edge12" class="edge">
<title>EditorPreferencesComponent&#45;&gt;AppModule</title>
<path fill="none" stroke="#000000" d="M2684,-122.2396C2684,-137.5706 2684,-157 2684,-157 2684,-157 2374.764,-157 2374.764,-157"/>
<polygon fill="#000000" stroke="#000000" points="2374.764,-153.5001 2364.764,-157 2374.7639,-160.5001 2374.764,-153.5001"/>
</g>
<!-- EditorTabsComponent -->
<g id="node13" class="node">
<title>EditorTabsComponent</title>
<polygon fill="#ffffb3" stroke="#000000" points="2574.5393,-122 2431.4607,-122 2431.4607,-86 2574.5393,-86 2574.5393,-122"/>
<text text-anchor="middle" x="2503" y="-99.8" font-family="Times,serif" font-size="14.00" fill="#000000">EditorTabsComponent</text>
</g>
<!-- EditorTabsComponent&#45;&gt;AppModule -->
<g id="edge13" class="edge">
<title>EditorTabsComponent&#45;&gt;AppModule</title>
<path fill="none" stroke="#000000" d="M2503,-122.0511C2503,-136.373 2503,-154 2503,-154 2503,-154 2374.748,-154 2374.748,-154"/>
<polygon fill="#000000" stroke="#000000" points="2374.7481,-150.5001 2364.748,-154 2374.748,-157.5001 2374.7481,-150.5001"/>
</g>
<!-- IslandSaveDialogComponent -->
<g id="node14" class="node">
<title>IslandSaveDialogComponent</title>
<polygon fill="#ffffb3" stroke="#000000" points="2413.3571,-122 2232.6429,-122 2232.6429,-86 2413.3571,-86 2413.3571,-122"/>
<text text-anchor="middle" x="2323" y="-99.8" font-family="Times,serif" font-size="14.00" fill="#000000">IslandSaveDialogComponent</text>
</g>
<!-- IslandSaveDialogComponent&#45;&gt;AppModule -->
<g id="edge14" class="edge">
<title>IslandSaveDialogComponent&#45;&gt;AppModule</title>
<path fill="none" stroke="#000000" d="M2323,-122.1061C2323,-122.1061 2323,-140.991 2323,-140.991"/>
<polygon fill="#000000" stroke="#000000" points="2319.5001,-140.9909 2323,-150.991 2326.5001,-140.991 2319.5001,-140.9909"/>
</g>
<!-- JerooIslandComponent -->
<g id="node15" class="node">
<title>JerooIslandComponent</title>
<polygon fill="#ffffb3" stroke="#000000" points="2214.8627,-122 2069.1373,-122 2069.1373,-86 2214.8627,-86 2214.8627,-122"/>
<text text-anchor="middle" x="2142" y="-99.8" font-family="Times,serif" font-size="14.00" fill="#000000">JerooIslandComponent</text>
</g>
<!-- JerooIslandComponent&#45;&gt;AppModule -->
<g id="edge15" class="edge">
<title>JerooIslandComponent&#45;&gt;AppModule</title>
<path fill="none" stroke="#000000" d="M2142,-122.0511C2142,-136.373 2142,-154 2142,-154 2142,-154 2271.02,-154 2271.02,-154"/>
<polygon fill="#000000" stroke="#000000" points="2271.0201,-157.5001 2281.02,-154 2271.02,-150.5001 2271.0201,-157.5001"/>
</g>
<!-- JerooStatusComponent -->
<g id="node16" class="node">
<title>JerooStatusComponent</title>
<polygon fill="#ffffb3" stroke="#000000" points="2050.8753,-122 1905.1247,-122 1905.1247,-86 2050.8753,-86 2050.8753,-122"/>
<text text-anchor="middle" x="1978" y="-99.8" font-family="Times,serif" font-size="14.00" fill="#000000">JerooStatusComponent</text>
</g>
<!-- JerooStatusComponent&#45;&gt;AppModule -->
<g id="edge16" class="edge">
<title>JerooStatusComponent&#45;&gt;AppModule</title>
<path fill="none" stroke="#000000" d="M1978,-122.2396C1978,-137.5706 1978,-157 1978,-157 1978,-157 2271.0411,-157 2271.0411,-157"/>
<polygon fill="#000000" stroke="#000000" points="2271.0412,-160.5001 2281.0411,-157 2271.0411,-153.5001 2271.0412,-160.5001"/>
</g>
<!-- LevelEditorComponent -->
<g id="node17" class="node">
<title>LevelEditorComponent</title>
<polygon fill="#ffffb3" stroke="#000000" points="1887.1993,-122 1738.8007,-122 1738.8007,-86 1887.1993,-86 1887.1993,-122"/>
<text text-anchor="middle" x="1813" y="-99.8" font-family="Times,serif" font-size="14.00" fill="#000000">LevelEditorComponent</text>
</g>
<!-- LevelEditorComponent&#45;&gt;AppModule -->
<g id="edge17" class="edge">
<title>LevelEditorComponent&#45;&gt;AppModule</title>
<path fill="none" stroke="#000000" d="M1813,-122.0091C1813,-138.0494 1813,-159 1813,-159 1813,-159 2271.2646,-159 2271.2646,-159"/>
<polygon fill="#000000" stroke="#000000" points="2271.2646,-162.5001 2281.2646,-159 2271.2645,-155.5001 2271.2646,-162.5001"/>
</g>
<!-- LoggingMessageComponent -->
<g id="node18" class="node">
<title>LoggingMessageComponent</title>
<polygon fill="#ffffb3" stroke="#000000" points="1720.7534,-122 1543.2466,-122 1543.2466,-86 1720.7534,-86 1720.7534,-122"/>
<text text-anchor="middle" x="1632" y="-99.8" font-family="Times,serif" font-size="14.00" fill="#000000">LoggingMessageComponent</text>
</g>
<!-- LoggingMessageComponent&#45;&gt;AppModule -->
<g id="edge18" class="edge">
<title>LoggingMessageComponent&#45;&gt;AppModule</title>
<path fill="none" stroke="#000000" d="M1632,-122.0336C1632,-139.0597 1632,-162 1632,-162 1632,-162 2271.331,-162 2271.331,-162"/>
<polygon fill="#000000" stroke="#000000" points="2271.331,-165.5001 2281.331,-162 2271.331,-158.5001 2271.331,-165.5001"/>
</g>
<!-- MessagesComponent -->
<g id="node19" class="node">
<title>MessagesComponent</title>
<polygon fill="#ffffb3" stroke="#000000" points="1524.7548,-122 1389.2452,-122 1389.2452,-86 1524.7548,-86 1524.7548,-122"/>
<text text-anchor="middle" x="1457" y="-99.8" font-family="Times,serif" font-size="14.00" fill="#000000">MessagesComponent</text>
</g>
<!-- MessagesComponent&#45;&gt;AppModule -->
<g id="edge19" class="edge">
<title>MessagesComponent&#45;&gt;AppModule</title>
<path fill="none" stroke="#000000" d="M1457,-122.002C1457,-139.6754 1457,-164 1457,-164 1457,-164 2271.231,-164 2271.231,-164"/>
<polygon fill="#000000" stroke="#000000" points="2271.2311,-167.5001 2281.231,-164 2271.231,-160.5001 2271.2311,-167.5001"/>
</g>
<!-- PrintCodeComponent -->
<g id="node20" class="node">
<title>PrintCodeComponent</title>
<polygon fill="#ffffb3" stroke="#000000" points="1371.108,-122 1232.892,-122 1232.892,-86 1371.108,-86 1371.108,-122"/>
<text text-anchor="middle" x="1302" y="-99.8" font-family="Times,serif" font-size="14.00" fill="#000000">PrintCodeComponent</text>
</g>
<!-- PrintCodeComponent&#45;&gt;AppModule -->
<g id="edge20" class="edge">
<title>PrintCodeComponent&#45;&gt;AppModule</title>
<path fill="none" stroke="#000000" d="M1302,-122.2222C1302,-140.8285 1302,-167 1302,-167 1302,-167 2271.0721,-167 2271.0721,-167"/>
<polygon fill="#000000" stroke="#000000" points="2271.0722,-170.5001 2281.0721,-167 2271.0721,-163.5001 2271.0722,-170.5001"/>
</g>
<!-- PrintCodeDialogComponent -->
<g id="node21" class="node">
<title>PrintCodeDialogComponent</title>
<polygon fill="#ffffb3" stroke="#000000" points="1215.2105,-122 1038.7895,-122 1038.7895,-86 1215.2105,-86 1215.2105,-122"/>
<text text-anchor="middle" x="1127" y="-99.8" font-family="Times,serif" font-size="14.00" fill="#000000">PrintCodeDialogComponent</text>
</g>
<!-- PrintCodeDialogComponent&#45;&gt;AppModule -->
<g id="edge21" class="edge">
<title>PrintCodeDialogComponent&#45;&gt;AppModule</title>
<path fill="none" stroke="#000000" d="M1127,-122.1061C1127,-141.3391 1127,-169 1127,-169 1127,-169 2271.135,-169 2271.135,-169"/>
<polygon fill="#000000" stroke="#000000" points="2271.135,-172.5001 2281.135,-169 2271.135,-165.5001 2271.135,-172.5001"/>
</g>
<!-- PrintIslandComponent -->
<g id="node22" class="node">
<title>PrintIslandComponent</title>
<polygon fill="#ffffb3" stroke="#000000" points="1021.2674,-122 878.7326,-122 878.7326,-86 1021.2674,-86 1021.2674,-122"/>
<text text-anchor="middle" x="950" y="-99.8" font-family="Times,serif" font-size="14.00" fill="#000000">PrintIslandComponent</text>
</g>
<!-- PrintIslandComponent&#45;&gt;AppModule -->
<g id="edge22" class="edge">
<title>PrintIslandComponent&#45;&gt;AppModule</title>
<path fill="none" stroke="#000000" d="M950,-122.2228C950,-142.3652 950,-172 950,-172 950,-172 2271.1592,-172 2271.1592,-172"/>
<polygon fill="#000000" stroke="#000000" points="2271.1592,-175.5001 2281.1592,-172 2271.1591,-168.5001 2271.1592,-175.5001"/>
</g>
<!-- PrintLayoutComponent -->
<g id="node23" class="node">
<title>PrintLayoutComponent</title>
<polygon fill="#ffffb3" stroke="#000000" points="861.2148,-122 712.7852,-122 712.7852,-86 861.2148,-86 861.2148,-122"/>
<text text-anchor="middle" x="787" y="-99.8" font-family="Times,serif" font-size="14.00" fill="#000000">PrintLayoutComponent</text>
</g>
<!-- PrintLayoutComponent&#45;&gt;AppModule -->
<g id="edge23" class="edge">
<title>PrintLayoutComponent&#45;&gt;AppModule</title>
<path fill="none" stroke="#000000" d="M787,-122.2843C787,-143.3211 787,-175 787,-175 787,-175 2271.1191,-175 2271.1191,-175"/>
<polygon fill="#000000" stroke="#000000" points="2271.1191,-178.5001 2281.1191,-175 2271.1191,-171.5001 2271.1191,-178.5001"/>
</g>
<!-- RuntimeErrorMessageComponent -->
<g id="node24" class="node">
<title>RuntimeErrorMessageComponent</title>
<polygon fill="#ffffb3" stroke="#000000" points="695.0674,-122 486.9326,-122 486.9326,-86 695.0674,-86 695.0674,-122"/>
<text text-anchor="middle" x="591" y="-99.8" font-family="Times,serif" font-size="14.00" fill="#000000">RuntimeErrorMessageComponent</text>
</g>
<!-- RuntimeErrorMessageComponent&#45;&gt;AppModule -->
<g id="edge24" class="edge">
<title>RuntimeErrorMessageComponent&#45;&gt;AppModule</title>
<path fill="none" stroke="#000000" d="M591,-122.0449C591,-143.6623 591,-177 591,-177 591,-177 2271.0445,-177 2271.0445,-177"/>
<polygon fill="#000000" stroke="#000000" points="2271.0445,-180.5001 2281.0445,-177 2271.0444,-173.5001 2271.0445,-180.5001"/>
</g>
<!-- WarningDialogComponent -->
<g id="node25" class="node">
<title>WarningDialogComponent</title>
<polygon fill="#ffffb3" stroke="#000000" points="469.4157,-122 300.5843,-122 300.5843,-86 469.4157,-86 469.4157,-122"/>
<text text-anchor="middle" x="385" y="-99.8" font-family="Times,serif" font-size="14.00" fill="#000000">WarningDialogComponent</text>
</g>
<!-- WarningDialogComponent&#45;&gt;AppModule -->
<g id="edge25" class="edge">
<title>WarningDialogComponent&#45;&gt;AppModule</title>
<path fill="none" stroke="#000000" d="M385,-122.0109C385,-144.4852 385,-180 385,-180 385,-180 2271.1738,-180 2271.1738,-180"/>
<polygon fill="#000000" stroke="#000000" points="2271.1738,-183.5001 2281.1738,-180 2271.1738,-176.5001 2271.1738,-183.5001"/>
</g>
<!-- AppComponent  -->
<g id="node29" class="node">
<title>AppComponent </title>
<polygon fill="#80b1d3" stroke="#000000" points="2377.439,-252 2268.561,-252 2268.561,-216 2377.439,-216 2377.439,-252"/>
<text text-anchor="middle" x="2323" y="-229.8" font-family="Times,serif" font-size="14.00" fill="#000000">AppComponent </text>
</g>
<!-- AppModule&#45;&gt;AppComponent  -->
<g id="edge28" class="edge">
<title>AppModule&#45;&gt;AppComponent </title>
<path fill="none" stroke="#000000" stroke-dasharray="1,5" d="M2323,-187.1061C2323,-187.1061 2323,-205.991 2323,-205.991"/>
<polygon fill="#000000" stroke="#000000" points="2319.5001,-205.9909 2323,-215.991 2326.5001,-205.991 2319.5001,-205.9909"/>
</g>
<!-- AppRoutingModule -->
<g id="node27" class="node">
<title>AppRoutingModule</title>
<polygon fill="#8dd3c7" stroke="#000000" points="277.2744,-122 274.2744,-126 253.2744,-126 250.2744,-122 148.7256,-122 148.7256,-86 277.2744,-86 277.2744,-122"/>
<text text-anchor="middle" x="213" y="-99.8" font-family="Times,serif" font-size="14.00" fill="#000000">AppRoutingModule</text>
</g>
<!-- AppRoutingModule&#45;&gt;AppModule -->
<g id="edge26" class="edge">
<title>AppRoutingModule&#45;&gt;AppModule</title>
<path fill="none" stroke="#000000" d="M213,-122.0908C213,-145.1328 213,-182 213,-182 213,-182 2271.3263,-182 2271.3263,-182"/>
<polygon fill="#000000" stroke="#000000" points="2271.3263,-185.5001 2281.3263,-182 2271.3262,-178.5001 2271.3263,-185.5001"/>
</g>
<!-- MaterialModule -->
<g id="node28" class="node">
<title>MaterialModule</title>
<polygon fill="#8dd3c7" stroke="#000000" points="130.4706,-122 127.4706,-126 106.4706,-126 103.4706,-122 23.5294,-122 23.5294,-86 130.4706,-86 130.4706,-122"/>
<text text-anchor="middle" x="77" y="-99.8" font-family="Times,serif" font-size="14.00" fill="#000000">MaterialModule</text>
</g>
<!-- MaterialModule&#45;&gt;AppModule -->
<g id="edge27" class="edge">
<title>MaterialModule&#45;&gt;AppModule</title>
<path fill="none" stroke="#000000" d="M77,-122.3802C77,-146.2785 77,-185 77,-185 77,-185 2271.1243,-185 2271.1243,-185"/>
<polygon fill="#000000" stroke="#000000" points="2271.1244,-188.5001 2281.1243,-185 2271.1243,-181.5001 2271.1244,-188.5001"/>
</g>
</g>
</svg>
